# xmcd CD database file
#
# Track frame offsets:
#	150
#	34163
#	48110
#	72199
#	95038
#	114194
#	135419
#	149176
#	163150
#	181181
#	193430
#	210356
#	253100
#
# Disc length: 4188 seconds
#
# Revision: 1
# Processed by: cddbd v1.5.1PL0 Copyright (c) Steve Scherf et al.
# Submitted via: CDex 1.50beta9
#
DISCID=c0105a0d
DTITLE=Mike Oldfield - Art In Heaven (Live In Berlin)
DYEAR=2001
DGENRE=New Age
TTITLE0=Tubular Bells
TTITLE1=Portsmouth
TTITLE2=Moonlight Shadow
TTITLE3=Secrets
TTITLE4=Shadow On The Wall
TTITLE5=Sunlight
TTITLE6=The Doges Palace
TTITLE7=Mastermind
TTITLE8=Broad
TTITLE9=Liberation
TTITLE10=Amber Light
TTITLE11=The Millenium Bell
TTITLE12=Art In Heaven
EXTD=YEAR: 2001
EXTT0=
EXTT1=
EXTT2=
EXTT3=
EXTT4=
EXTT5=
EXTT6=
EXTT7=
EXTT8=
EXTT9=
EXTT10=
EXTT11=
EXTT12=
PLAYORDER=
